<?xml version="1.0" encoding="utf-8"?>
<!-- Generator: Adobe Illustrator 21.1.0, SVG Export Plug-In . SVG Version: 6.00 Build 0)  -->
<svg version="1.1" id="Слой_1" xmlns="http://www.w3.org/2000/svg" xmlns:xlink="http://www.w3.org/1999/xlink" x="0px" y="0px"
	 viewBox="0 0 24 20" style="enable-background:new 0 0 24 20;" xml:space="preserve">
<style type="text/css">
	.st0{fill:#FF4C00;}
</style>
<path class="st0" d="M15.2,19.5c-0.6,0.6-1.6,0.6-2.3,0c-0.3-0.3-0.5-0.7-0.5-1.1s0.2-0.8,0.5-1.1l5.6-5.6H1.6C0.7,11.6,0,10.9,0,10
	c0-0.9,0.7-1.6,1.6-1.6h16.9L13,2.8c-0.6-0.6-0.6-1.7,0-2.3c0.6-0.6,1.6-0.6,2.3,0l8.3,8.4C23.8,9.2,24,9.6,24,10
	c0,0.4-0.2,0.8-0.5,1.1L15.2,19.5z"/>
</svg>
