<?xml version="1.0" encoding="utf-8"?>
<!-- Generator: Adobe Illustrator 21.1.0, SVG Export Plug-In . SVG Version: 6.00 Build 0)  -->
<svg version="1.1" id="Слой_1" xmlns="http://www.w3.org/2000/svg" xmlns:xlink="http://www.w3.org/1999/xlink" x="0px" y="0px"
	 viewBox="0 0 20 24" style="enable-background:new 0 0 20 24;" xml:space="preserve">
<style type="text/css">
	.st0{fill:#FFFFFF;}
</style>
<path class="st0" d="M19.5,8.8c0.6,0.6,0.6,1.6,0,2.3c-0.3,0.3-0.7,0.5-1.1,0.5s-0.8-0.2-1.1-0.5l-5.6-5.6v16.9
	c0,0.9-0.7,1.6-1.6,1.6c-0.9,0-1.6-0.7-1.6-1.6V5.5L2.8,11c-0.6,0.6-1.7,0.6-2.3,0c-0.6-0.6-0.6-1.6,0-2.3l8.4-8.3
	C9.2,0.2,9.6,0,10,0c0.4,0,0.8,0.2,1.1,0.5L19.5,8.8z"/>
</svg>
