<svg xmlns="http://www.w3.org/2000/svg" xmlns:xlink="http://www.w3.org/1999/xlink" version="1.1" style="" xml:space="preserve" width="60.599998474121094" height="61"><rect id="backgroundrect" width="100%" height="100%" x="0" y="0" fill="none" stroke="none"/>
<style type="text/css">
	.st0{fill:#FF4B00;}
	.st1{fill-rule:evenodd;clip-rule:evenodd;fill:#FF4B00;}
</style>

<g class="currentLayer" style=""><title>Layer 1</title><g id="svg_1" class="selected" transform="rotate(-90 30.306341171264652,30.500000000000004) ">
	<path class="st0" d="M30.5,61c-0.8,0-1.5-0.7-1.5-1.5s0.7-1.5,1.5-1.5c4.4,0,8.9-1.1,12.8-3.1c0.7-0.4,1.6-0.1,2,0.6   c0.4,0.7,0.1,1.6-0.6,2C40.3,59.8,35.4,61,30.5,61z M23.8,60.2c-0.1,0-0.2,0-0.3,0C9.7,56.9,0,44.7,0,30.5C0,13.7,13.7,0,30.5,0   c10.6,0,20.3,5.4,25.9,14.4c0.4,0.7,0.2,1.6-0.5,2.1c-0.7,0.4-1.6,0.2-2.1-0.5C48.8,7.9,40.1,3,30.5,3C15.3,3,3,15.3,3,30.5   c0,12.8,8.7,23.8,21.2,26.8c0.8,0.2,1.3,1,1.1,1.8C25.1,59.8,24.5,60.2,23.8,60.2z M59.1,27c-0.7,0-1.3-0.5-1.5-1.2   c-0.2-1-0.4-1.9-0.6-2.8c-0.2-0.7-0.5-1.5-0.7-2.2c-0.3-0.8,0.1-1.6,0.9-1.9c0.8-0.3,1.6,0.1,1.9,0.9c0.3,0.8,0.6,1.6,0.8,2.4   c0.3,1,0.5,2.1,0.7,3.2c0.1,0.8-0.4,1.6-1.2,1.7C59.2,27,59.2,27,59.1,27z" id="svg_2"/>
	<circle class="st1" cx="49" cy="51.900001525878906" r="1.5" id="svg_3"/>
</g></g></svg>