<svg 
 xmlns="http://www.w3.org/2000/svg"
 xmlns:xlink="http://www.w3.org/1999/xlink"
 width="30px" height="19px">
<path fill-rule="evenodd"  fill="rgb(255, 76, 0)"
 d="M28.500,11.000 L1.500,11.000 C0.672,11.000 -0.000,10.328 -0.000,9.500 C-0.000,8.671 0.672,8.000 1.500,8.000 L28.500,8.000 C29.328,8.000 30.000,8.671 30.000,9.500 C30.000,10.328 29.328,11.000 28.500,11.000 ZM28.500,3.000 L1.500,3.000 C0.672,3.000 -0.000,2.328 -0.000,1.500 C-0.000,0.671 0.672,-0.000 1.500,-0.000 L28.500,-0.000 C29.328,-0.000 30.000,0.671 30.000,1.500 C30.000,2.328 29.328,3.000 28.500,3.000 ZM11.500,16.000 L28.500,16.000 C29.328,16.000 30.000,16.672 30.000,17.500 C30.000,18.328 29.328,19.000 28.500,19.000 L11.500,19.000 C10.672,19.000 10.000,18.328 10.000,17.500 C10.000,16.672 10.672,16.000 11.500,16.000 Z"/>
</svg>