<?xml version="1.0" encoding="UTF-8"?>
<svg width="909px" height="200px" viewBox="0 0 909 200" version="1.1" xmlns="http://www.w3.org/2000/svg" xmlns:xlink="http://www.w3.org/1999/xlink">
    <!-- Generator: Sketch 49.3 (51167) - http://www.bohemiancoding.com/sketch -->
    <title>чтец лого для белого горизонт</title>
    <desc>Created with Sketch.</desc>
    <defs></defs>
    <g id="чтец-лого-для-белого-горизонт" stroke="none" stroke-width="1" fill="none" fill-rule="evenodd">
        <path d="M762,81 C762,78.2385763 764.238576,76 767,76 C769.761424,76 772,78.2385763 772,81 L772,102 C772,135.883038 799.402403,163 833,163 C866.597597,163 894,135.883038 894,102 L894,81 C894,78.2385763 896.238576,76 899,76 C901.761424,76 904,78.2385763 904,81 L904,102 C904,141.429462 872.09714,173 833,173 C793.90286,173 762,141.429462 762,102 L762,81 Z M828,170 C828,167.238576 830.238576,165 833,165 C835.761424,165 838,167.238576 838,170 L838,195 C838,197.761424 835.761424,200 833,200 C830.238576,200 828,197.761424 828,195 L828,170 Z M795,10 L795,102 C795,122.98682 812.01318,140 833,140 C853.98682,140 871,122.98682 871,102 L871,33.1421356 L847.857864,10 L795,10 Z M795,1.42108547e-14 L847.857864,0 C850.510029,0 853.053568,1.0535684 854.928932,2.92893219 L878.071068,26.0710678 C879.946432,27.9464316 881,30.4899707 881,33.1421356 L881,102 C881,128.509668 859.509668,150 833,150 C806.490332,150 785,128.509668 785,102 L785,10 C785,4.4771525 789.477153,1.42108547e-14 795,1.42108547e-14 Z M809,66 C806.238576,66 804,63.7614237 804,61 C804,58.2385763 806.238576,56 809,56 L857,56 C859.761424,56 862,58.2385763 862,61 C862,63.7614237 859.761424,66 857,66 L809,66 Z M848,33 L874,33 C876.761424,33 879,35.2385763 879,38 C879,40.7614237 876.761424,43 874,43 L843,43 C840.238576,43 838,40.7614237 838,38 L838,7 C838,4.23857625 840.238576,2 843,2 C845.761424,2 848,4.23857625 848,7 L848,33 Z M809,86 C806.238576,86 804,83.7614237 804,81 C804,78.2385763 806.238576,76 809,76 L857,76 C859.761424,76 862,78.2385763 862,81 C862,83.7614237 859.761424,86 857,86 L809,86 Z M809,106 C806.238576,106 804,103.761424 804,101 C804,98.2385763 806.238576,96 809,96 L857,96 C859.761424,96 862,98.2385763 862,101 C862,103.761424 859.761424,106 857,106 L809,106 Z M762,76 L772,76 C774.761424,76 777,78.2385763 777,81 C777,83.7614237 774.761424,86 772,86 L762,86 C759.238576,86 757,83.7614237 757,81 C757,78.2385763 759.238576,76 762,76 Z M894,76 L904,76 C906.761424,76 909,78.2385763 909,81 C909,83.7614237 906.761424,86 904,86 L894,86 C891.238576,86 889,83.7614237 889,81 C889,78.2385763 891.238576,76 894,76 Z" id="Combined-Shape" fill="#000000" fill-rule="nonzero"></path>
        <g id="Logos-/-чтец" transform="translate(0.000000, 48.000000)">
            <g id="Group-2" transform="translate(0.000000, 1.000000)">
                <g id="Group-19-Copy" fill="#000000">
                    <g id="Group-13-Copy-5">
                        <g id="Group-2-Copy-11">
                            <g id="Group" transform="translate(0.000000, 0.375887)">
                                <path d="M36.0546455,17.2836649 C35.7228161,25.2197042 35.3485723,32.444115 34.9344092,38.9619267 C34.5177511,45.4772239 33.9588804,51.3487865 33.257797,56.5665562 C32.5517238,61.7868406 31.6186093,66.4036239 30.4584536,70.4118769 C29.2982979,74.4226445 27.8063127,77.8877466 25.982498,80.8122123 C24.8223423,82.735872 23.514984,84.3225769 22.0654131,85.5748416 C20.6158422,86.8245918 19.1014024,87.8279123 17.5295785,88.5822887 C15.9527648,89.3341505 14.3984056,89.8546701 12.8665011,90.1488769 C11.3321016,90.4405691 9.90249036,90.5864152 8.57766739,90.5864152 C6.67151908,90.5864152 5.07474563,90.4405691 3.78984199,90.1488769 C2.50493835,89.8546701 1.2449843,89.4171319 0,88.8312329 L1.86373401,74.047971 C2.36023076,74.2164483 2.8567275,74.3396631 3.35571921,74.4226445 C3.85221595,74.5056259 4.35120766,74.5483739 4.8477044,74.5483739 C6.17252737,74.5483739 7.47988564,74.2164483 8.76229432,73.5425388 C10.047198,72.8786876 11.1449797,71.7496377 12.0606295,70.1604181 C13.3006239,68.3272836 14.3784459,65.63416 15.2916008,62.0810474 C16.2022606,58.5304494 17.0106272,53.9991621 17.7142055,48.4846709 C18.4177838,42.9701798 18.9791494,36.3945326 19.3933126,28.7501855 C19.8049807,21.1058385 20.0943959,12.1916245 20.2640531,2 L71.6102994,2 L71.6102994,89.7088241 L54.5772176,89.7088241 L54.5772176,17.2836649 L36.0546455,17.2836649 Z" id="Fill-1"></path>
                                <polygon id="Fill-2" points="122.649666 52.3889232 122.277917 52.3889232 116.931221 61.5344792 94.8009388 89.8537675 84.6065383 89.8537675 84.6065383 27.2028113 100.76888 27.2028113 100.76888 57.0233086 100.022887 65.5452468 100.519384 65.5452468 105.619079 56.648635 127.996362 27.2028113 138.190762 27.2028113 138.190762 89.8537675 122.030916 89.8537675 122.030916 61.2830204"></polygon>
                                <polygon id="Fill-3" points="182.067103 41.6113997 182.067103 89.8512529 165.408265 89.8512529 165.408265 41.6113997 147.631685 41.6113997 147.631685 27.2002967 199.349681 27.2002967 199.349681 41.6113997"></polygon>
                                <path d="M235.319498,15.673426 C233.662845,15.673426 232.086031,15.7362907 230.596541,15.8620201 C229.104556,15.9852349 227.901986,16.1335956 226.991326,16.302073 L226.991326,44.7445761 C227.320661,44.8275575 227.817157,44.9130535 228.483311,44.9935203 C229.144475,45.0790163 229.853043,45.141881 230.596541,45.1821144 C231.340039,45.2248624 232.066072,45.2449791 232.772145,45.2449791 L234.324009,45.2449791 C236.564482,45.2449791 238.7825,45.0387829 240.975568,44.6188467 C243.173627,44.2039397 245.142149,43.4294467 246.88363,42.3029113 C248.625111,41.1738614 250.009813,39.6072732 251.047716,37.6006321 C252.080629,35.5965055 252.602075,32.9662467 252.602075,29.7098554 C252.602075,26.9513525 252.105578,24.6756505 251.11009,22.8777202 C250.117096,21.0848191 248.807243,19.6414457 247.193005,18.5576583 C245.578767,17.4713564 243.730003,16.71698 241.661682,16.302073 C239.590867,15.8821368 237.472647,15.673426 235.319498,15.673426 M221.460003,1.45343177 C225.641553,1.0762436 229.808134,0.887649509 233.95226,0.887649509 C238.261054,0.887649509 242.594797,1.24472098 246.943509,1.95383476 C251.294717,2.66294853 255.214297,4.08369066 258.692269,6.21354657 C262.175231,8.34340247 265.011999,11.3081015 267.207562,15.1076438 C269.400631,18.9122152 270.500908,23.8609241 270.500908,29.956285 C270.500908,35.4707761 269.552823,40.1303074 267.641685,43.9298497 C265.735537,47.7319065 263.210639,50.8399371 260.059506,53.2639997 C256.908374,55.6880624 253.325613,57.4432447 249.30873,58.5270321 C245.286857,59.6158486 241.120276,60.156485 236.816473,60.156485 L234.820506,60.156485 C233.907351,60.156485 232.959267,60.1338537 231.961283,60.0936203 C230.96829,60.0508723 229.992761,59.9905222 229.039687,59.9075408 C228.086613,59.8245594 227.400499,59.7390634 226.988831,59.656082 L226.988831,89.8537675 L209.958244,89.8537675 L209.958244,3.01750541 C213.436216,2.35113964 217.273463,1.82810536 221.460003,1.45343177 Z" id="Fill-4"></path>
                                <path d="M302.922894,38.2217353 C297.870603,38.3700959 295.510372,39.6525357 293.399637,42.1520361 C291.303872,44.6389634 290.093817,48.033657 289.687139,52.2933688 L312.900233,52.512138 C313.229567,48.003482 312.827879,44.5207778 311.141287,42.0992297 C309.4522,39.675167 306.550563,38.113608 302.922894,38.2217353 M315.819334,89.539444 C311.55545,90.9199527 307.014626,91.6089498 302.20684,91.6089498 C292.177107,91.6089498 284.844424,88.6643674 280.201306,82.7726881 C275.560683,76.8835234 273.242867,68.801638 273.242867,58.5270321 C273.242867,47.503079 275.852594,39.230085 281.072047,33.7181084 C286.293995,28.2036173 293.629173,25.447629 303.077581,25.447629 C306.226219,25.447629 309.295018,25.8650506 312.278988,26.6998937 C315.262958,27.5347369 317.912604,28.9152456 320.235411,30.8338762 C322.558217,32.7575359 324.421951,35.3475613 325.829108,38.6039526 C327.238759,41.8603439 327.944833,45.9163741 327.944833,50.7619848 C327.944833,52.512138 327.840044,54.3930497 327.632963,56.3971762 C327.425881,58.4013027 327.116506,60.4884106 326.702343,62.6635291 L289.230561,62.6635291 C289.480057,67.9265615 291.11675,71.8920665 293.554324,74.5650734 C295.989404,77.2405949 299.936428,78.5733264 305.385418,78.5733264 C308.768581,78.5733264 311.757542,77.9094752 314.492016,77.0092528 C317.90013,75.8877466 321.108646,74.3588772 321.108646,74.3588772 L325.953856,84.4650057 C323.466382,86.4691322 320.088208,88.1614499 315.819334,89.539444 Z" id="Fill-5"></path>
                                <path d="M380.483669,39.3080372 C380.483669,39.3080372 375.536166,38.2946583 371.639041,38.2946583 C360.543961,38.2946583 353.341015,44.696799 353.341015,58.8262681 C353.341015,72.0806606 358.834914,78.6286473 370.421501,78.6286473 C374.198868,78.6286473 381.479157,77.6102393 381.479157,77.6102393 L383.707155,88.9334283 C380.663306,89.911603 374.685385,91.3901807 367.49242,91.3901807 C344.937995,91.3901807 336.644753,74.8014446 336.644753,57.966279 C336.644753,41.0104132 346.397546,25.7720108 368.834708,25.7720108 C372.978834,25.7720108 378.093499,26.2623555 382.85388,27.4919889 L380.483669,39.3080372" id="Fill-6"></path>
                                <path d="M406.017074,45.0639288 C400.947319,45.0639288 396.843112,40.9274318 396.843112,35.8203039 C396.843112,30.7131759 400.947319,26.5741644 406.017074,26.5741644 C411.079345,26.5741644 415.188542,30.7131759 415.188542,35.8203039 C415.188542,40.9274318 411.079345,45.0639288 406.017074,45.0639288 Z" id="Fill-7"></path>
                                <path d="M415.188542,81.5380255 C415.188542,86.6426388 411.079345,90.7816504 406.017074,90.7816504 C400.947319,90.7816504 396.843112,86.6426388 396.843112,81.5380255 C396.843112,76.428383 400.947319,72.2893714 406.017074,72.2893714 C411.079345,72.2893714 415.188542,76.4308976 415.188542,81.5380255" id="Fill-8"></path>
                            </g>
                        </g>
                    </g>
                </g>
                <path d="M461.133465,2.5 L461.133465,30.3181818 C461.133465,35.3304919 462.113106,39.0687837 464.072417,41.5331695 C466.031728,43.9975553 469.262459,45.2297297 473.764706,45.2297297 C476.932954,45.2297297 479.913563,44.8746964 482.706624,44.1646192 C485.499684,43.4545419 487.729931,42.389442 489.39743,40.9692875 L489.39743,2.5 L506.530895,2.5 L506.530895,90.2149877 L489.39743,90.2149877 L489.39743,54.8783784 C487.229681,56.1314559 484.332445,57.2800931 480.705635,58.3243243 C477.078825,59.3685556 472.764237,59.8906634 467.76174,59.8906634 C464.259992,59.8906634 461.070949,59.4520928 458.194513,58.5749386 C455.318078,57.6977843 452.816867,56.2776511 450.690806,54.3144963 C448.564745,52.3513415 446.918114,49.8452241 445.750865,46.7960688 C444.583616,43.7469135 444,40.0503903 444,35.7063882 L444,2.5 L461.133465,2.5 Z M566.185368,41.9717445 L548.80178,41.9717445 L548.80178,90.2149877 L532.0435,90.2149877 L532.0435,41.9717445 L514.159664,41.9717445 L514.159664,27.5614251 L566.185368,27.5614251 L566.185368,41.9717445 Z M622.463174,84.8267813 C619.961925,86.8317054 616.564447,88.5233346 612.270638,89.9017199 C607.976828,91.2801052 603.412118,91.9692875 598.576372,91.9692875 C588.488004,91.9692875 581.109432,89.0245995 576.440435,83.1351351 C571.771438,77.2456708 569.436975,69.163442 569.436975,58.8882064 C569.436975,47.8611242 572.063246,39.5909367 577.315868,34.0773956 C582.568489,28.5638545 589.947061,25.8071253 599.451804,25.8071253 C602.620052,25.8071253 605.704879,26.2248115 608.706377,27.0601966 C611.707875,27.8955816 614.375833,29.2739462 616.710331,31.1953317 C619.04483,33.1167172 620.920738,35.7063719 622.338112,38.9643735 C623.755486,42.222375 624.464162,46.2739315 624.464162,51.1191646 C624.464162,52.8734731 624.359945,54.7530612 624.151508,56.7579853 C623.94307,58.7629093 623.630419,60.8513405 623.213544,63.0233415 L585.695007,63.0233415 C585.945132,68.2862671 587.299955,72.2542864 589.759516,74.9275184 C592.219076,77.6007505 596.20017,78.9373464 601.702916,78.9373464 C605.121289,78.9373464 608.185272,78.4152386 610.894958,77.3710074 C613.604644,76.3267761 615.668143,75.2616762 617.085517,74.1756757 L622.463174,84.8267813 Z M599.201681,38.8390663 C594.949559,38.8390663 591.802202,40.1130094 589.759516,42.6609337 C587.716829,45.2088579 586.487067,48.6130008 586.070193,52.8734644 L609.331686,52.8734644 C609.665185,48.3623853 608.977352,44.8955895 607.268166,42.472973 C605.55898,40.0503564 602.870178,38.8390663 599.201681,38.8390663 Z M697,104.5 L685.11913,104.5 L683.243203,90.2149877 L635.969847,90.2149877 L635.969847,27.5614251 L652.227879,27.5614251 L652.227879,75.8046683 L671.612457,75.8046683 L671.612457,27.5614251 L687.870489,27.5614251 L687.870489,75.8046683 L697,75.8046683 L697,104.5 Z" id="Чтец" fill="#FF4C00"></path>
            </g>
        </g>
    </g>
</svg>