<?xml version="1.0" encoding="utf-8"?>
<!-- Generator: Adobe Illustrator 21.1.0, SVG Export Plug-In . SVG Version: 6.00 Build 0)  -->
<svg version="1.1" id="Слой_1" xmlns="http://www.w3.org/2000/svg" xmlns:xlink="http://www.w3.org/1999/xlink" x="0px" y="0px"
	 viewBox="0 0 100 100" style="enable-background:new 0 0 100 100;" xml:space="preserve">
<style type="text/css">
	.st0{fill:#FF4C00;}
</style>
<g>
	<g>
		<path class="st0" d="M80,53.3c-2,0-3.8,0.9-5,2.3c-1.2-1.4-3-2.3-5-2.3c-2,0-3.8,0.9-5,2.3c-1.2-1.4-3-2.3-5-2.3
			c-1.2,0-2.3,0.4-3.3,0.9v-5.2c0.2-0.1,0.4-0.1,0.6-0.2c0.2,0,0.3-0.1,0.5-0.2c0.5-0.2,1-0.3,1.5-0.5c0.1-0.1,0.3-0.1,0.4-0.2
			c0.6-0.2,1.1-0.5,1.7-0.8c0,0,0.1,0,0.1,0c2.3-1.2,4.4-2.7,6.3-4.6c0.1-0.1,0.1-0.1,0.1-0.2C72.3,37.9,75,31.7,75,25
			c0-6.9-2.8-13.3-7.8-18.1c-5-4.8-11.6-7.2-18.5-6.9C36.5,0.6,26.3,10.3,25.1,22.5c-0.8,7.6,2,14.9,7.1,20c0,0,0,0.1,0.1,0.1
			c0.1,0.1,0.2,0.2,0.4,0.3c0.1,0.1,0.2,0.2,0.3,0.2c0.4,0.4,0.9,0.8,1.3,1.1c0.1,0.1,0.3,0.2,0.4,0.3c0.4,0.4,0.9,0.7,1.4,1
			c0.1,0.1,0.2,0.2,0.3,0.2c0.6,0.4,1.2,0.7,1.8,1.1c0.1,0.1,0.3,0.1,0.4,0.2c0.5,0.2,0.9,0.5,1.4,0.7c0.2,0.1,0.4,0.2,0.7,0.3
			c0.4,0.2,0.9,0.3,1.3,0.5c0.2,0.1,0.4,0.2,0.7,0.2c0.2,0.1,0.5,0.1,0.7,0.2v25.2l-5.4-5.4c-1.4-1.4-3.3-2.2-5.3-2.2
			c-4.2,0-7.6,3.4-7.6,7.6c0,2,0.8,3.9,2.2,5.3l16.1,16.1v2.6c0,0.9,0.7,1.7,1.7,1.7h38.3c0.9,0,1.7-0.7,1.7-1.7v-6.3l1.5-3
			c0.1-0.2,0.2-0.5,0.2-0.7V60C86.7,56.3,83.7,53.3,80,53.3z M32.6,37.8c-3.1-4.2-4.7-9.5-4.1-15c1-10.6,9.9-18.9,20.5-19.4
			c6-0.3,11.7,1.8,16,6c4.3,4.1,6.7,9.7,6.7,15.7c0,4.7-1.6,9.2-4.2,12.8c-1.6-4.9-5.2-9-10-11.2C59,24.9,60,22.5,60,20
			c0-5.5-4.5-10-10-10c-5.5,0-10,4.5-10,10c0,2.5,1,4.9,2.5,6.6C37.8,28.8,34.1,32.8,32.6,37.8z M56.7,20c0,2.5-1.4,4.6-3.3,5.7
			c0,0,0,0,0,0c-0.5,0.3-0.9,0.5-1.4,0.6c-0.1,0-0.2,0.1-0.3,0.1c-0.2,0-0.4,0.1-0.5,0.1c-0.3,0-0.6,0.1-0.9,0.1c-0.1,0-0.2,0-0.3,0
			c-0.3,0-0.6,0-0.9-0.1c-0.2,0-0.4-0.1-0.5-0.1c-0.1,0-0.2-0.1-0.3-0.1c-0.5-0.1-1-0.3-1.4-0.6c0,0,0,0,0,0c-2-1.2-3.3-3.3-3.3-5.7
			c0-3.7,3-6.7,6.7-6.7C53.7,13.3,56.7,16.3,56.7,20z M43.3,40v5.6c-0.7-0.2-1.4-0.5-2-0.8c-0.2-0.1-0.4-0.2-0.6-0.3
			c-0.5-0.2-0.9-0.5-1.4-0.7c-0.2-0.1-0.4-0.2-0.6-0.4c-0.4-0.3-0.9-0.5-1.3-0.8c-0.2-0.1-0.4-0.3-0.5-0.4c-0.5-0.4-1.1-0.8-1.6-1.3
			c0,0-0.1-0.1-0.1-0.1c0.9-5.6,5-10.2,10.4-11.8c1.3,0.6,2.8,1,4.3,1c1.6,0,3-0.4,4.3-1c5.4,1.6,9.5,6.2,10.4,11.8
			c-0.2,0.2-0.4,0.4-0.7,0.6c0,0-0.1,0.1-0.1,0.1c-0.8,0.7-1.6,1.3-2.5,1.8c0,0-0.1,0.1-0.1,0.1c-0.3,0.2-0.7,0.4-1,0.6
			c-0.3,0.2-0.6,0.3-0.9,0.5c-0.3,0.1-0.5,0.3-0.8,0.4c-0.6,0.3-1.2,0.5-1.8,0.7c0,0-0.1,0-0.1,0V40c0-3.7-3-6.7-6.7-6.7
			S43.3,36.3,43.3,40z M83.3,87.9l-1.5,3c-0.1,0.2-0.2,0.5-0.2,0.7v5h-35V95c0-0.4-0.2-0.9-0.5-1.2L29.6,77.2
			c-0.8-0.8-1.2-1.9-1.2-3c0-2.3,1.9-4.2,4.2-4.2c1.1,0,2.2,0.4,3,1.2l8.3,8.3c0.5,0.5,1.2,0.6,1.8,0.4c0.6-0.3,1-0.9,1-1.5V47.8V40
			c0-1.8,1.5-3.3,3.3-3.3c1.8,0,3.3,1.5,3.3,3.3v7.8V60v10h3.3V60c0-1.8,1.5-3.3,3.3-3.3c1.8,0,3.3,1.5,3.3,3.3v10h3.3V60
			c0-1.8,1.5-3.3,3.3-3.3c1.8,0,3.3,1.5,3.3,3.3v10h3.3V60c0-1.8,1.5-3.3,3.3-3.3c1.8,0,3.3,1.5,3.3,3.3V87.9z M17,31.3
			c1.8-1.5,3-3.8,3-6.3c0-4.6-3.7-8.3-8.3-8.3c-4.6,0-8.3,3.7-8.3,8.3c0,2.5,1.2,4.8,3,6.3C2.6,33.3,0,37.2,0,41.7v5
			c0,0.9,0.7,1.7,1.7,1.7h20c0.9,0,1.7-0.7,1.7-1.7v-5C23.3,37.2,20.8,33.3,17,31.3z M11.7,20c2.8,0,5,2.2,5,5s-2.2,5-5,5
			c-2.8,0-5-2.2-5-5S8.9,20,11.7,20z M20,45H3.3v-3.3c0-4.6,3.7-8.3,8.3-8.3c4.6,0,8.3,3.7,8.3,8.3V45z M93.7,29.7
			c1.8-1.5,3-3.8,3-6.3c0-4.6-3.7-8.3-8.3-8.3c-4.6,0-8.3,3.7-8.3,8.3c0,2.5,1.2,4.8,3,6.3c-3.7,1.9-6.3,5.9-6.3,10.3v5
			c0,0.9,0.7,1.7,1.7,1.7h20c0.9,0,1.7-0.7,1.7-1.7v-5C100,35.5,97.4,31.6,93.7,29.7z M88.3,18.3c2.8,0,5,2.2,5,5c0,2.8-2.2,5-5,5
			s-5-2.2-5-5C83.3,20.6,85.6,18.3,88.3,18.3z M96.7,43.3H80V40c0-4.6,3.7-8.3,8.3-8.3c4.6,0,8.3,3.7,8.3,8.3V43.3z"/>
	</g>
</g>
</svg>
