<?xml version="1.0" encoding="utf-8"?>
<!-- Generator: Adobe Illustrator 21.1.0, SVG Export Plug-In . SVG Version: 6.00 Build 0)  -->
<svg version="1.1" id="Слой_1" xmlns="http://www.w3.org/2000/svg" xmlns:xlink="http://www.w3.org/1999/xlink" x="0px" y="0px"
	 viewBox="0 0 100 95" style="enable-background:new 0 0 100 95;" xml:space="preserve">
<style type="text/css">
	.st0{fill:#FF4C00;}
</style>
<g>
	<g>
		<path class="st0" d="M73.2,16c-3.3-0.2-5.9-3.1-5.7-6.4c0.2-3.1,2.6-5.6,5.7-5.7h-0.1C74.2,3.8,75,3,75,1.9C75,0.9,74.2,0,73.1,0
			H9.9C4.4,0,0,4.5,0,9.9v78.3C0,92,3,95,6.7,95h61.7c3.7,0,6.7-3,6.7-6.7V17.9C75.1,16.8,74.2,16,73.2,16z M9.2,3.8
			c0.2,0,0.5,0,0.7,0h55.5c-0.9,1.2-1.6,2.5-1.9,4H45.8c-1.1,0-1.9,0.9-1.9,1.9c0,1.1,0.9,1.9,1.9,1.9h17.6c0.3,1.6,0.9,3,1.9,4.3
			H9.9c-3.3,0.2-6.2-2.4-6.4-5.7C3.3,6.9,5.8,4,9.2,3.8z M71.2,88.3c0,1.6-1.3,2.9-2.9,2.9H6.6c-1.6,0-2.8-1.3-2.8-2.9V17.8
			c1.7,1.4,3.9,2.1,6.1,2.1h61.3V88.3z M33.1,66.2h8c0.4,0,0.8-0.1,1.1-0.2L58,73.7c1,0.5,2.1,0.1,2.6-0.9c0.1-0.3,0.2-0.6,0.2-0.9
			V40.4c0-1.1-0.9-1.9-1.9-1.9c-0.3,0-0.6,0.1-0.8,0.2l-15.8,7.7c-0.4-0.1-0.7-0.2-1.1-0.2h-8c-4.6,0-9.6,2.5-9.6,9.6v0.9
			C23.5,63.7,28.5,66.2,33.1,66.2z M44.9,49.3l12-5.8v25.4l-12-5.8V49.3z M27.3,56.6l0.1-0.8C27,53,28.9,50.4,31.6,50
			c0.5-0.1,1-0.1,1.5,0h8v12.4h-8c-2.8,0.4-5.4-1.5-5.8-4.3C27.2,57.6,27.2,57.1,27.3,56.6z M81.8,39.6c-0.2-0.2-0.3-0.3-0.5-0.5v0
			c-0.6-0.9-1.8-1.1-2.7-0.4c-0.9,0.6-1.1,1.8-0.4,2.7c0.1,0.2,0.3,0.3,0.4,0.4c8,7.7,8.2,20.4,0.5,28.3c-0.2,0.2-0.3,0.3-0.5,0.5
			c-0.8,0.7-0.8,2,0,2.7c0.7,0.8,2,0.8,2.7,0C90.8,64.2,91,49,81.8,39.6z M91.3,34.7c-0.2-0.2-0.5-0.5-0.7-0.7c-0.8-0.7-2-0.7-2.7,0
			c-0.7,0.8-0.7,2,0,2.7c10.7,10.4,11,27.5,0.6,38.3c-0.2,0.2-0.4,0.4-0.6,0.6c-0.8,0.7-0.8,2,0,2.7c0.7,0.8,2,0.8,2.7,0
			C102.8,66.6,103.2,47,91.3,34.7z"/>
	</g>
</g>
</svg>
