<?xml version="1.0" encoding="utf-8"?>
<!-- Generator: Adobe Illustrator 21.1.0, SVG Export Plug-In . SVG Version: 6.00 Build 0)  -->
<svg version="1.1" id="Слой_1" xmlns="http://www.w3.org/2000/svg" xmlns:xlink="http://www.w3.org/1999/xlink" x="0px" y="0px"
	 viewBox="0 0 90 103.9" style="enable-background:new 0 0 90 103.9;" xml:space="preserve">
<style type="text/css">
	.st0{fill:#FF4C00;}
</style>
<g>
	<g>
		<path class="st0" d="M88.3,0H22.5c-1,0-1.7,0.8-1.7,1.7v8.7h-8.7c-1,0-1.7,0.8-1.7,1.7v8.7H1.7c-1,0-1.7,0.8-1.7,1.7v79.6
			c0,1,0.8,1.7,1.7,1.7h65.8c1,0,1.7-0.8,1.7-1.7v-8.7h8.7c1,0,1.7-0.8,1.7-1.7v-8.7h8.7c1,0,1.7-0.8,1.7-1.7V1.7
			C90,0.8,89.2,0,88.3,0z M65.8,91.7v8.7H3.5V24.2h8.7h53.7V91.7z M76.2,81.4V90h-6.9V22.5c0-1-0.8-1.7-1.7-1.7H13.8v-6.9h8.7h53.7
			V81.4z M86.5,79.6h-6.9V12.1c0-1-0.8-1.7-1.7-1.7H24.2V3.5h62.3V79.6z M7.4,41l5.2,5.2c0.3,0.3,0.8,0.5,1.2,0.5
			c0.4,0,0.9-0.2,1.2-0.5l10.4-10.4L23,33.4l-9.2,9.2l-4-4L7.4,41z M13.8,87.6l-4-4L7.4,86l5.2,5.2c0.3,0.3,0.8,0.5,1.2,0.5
			c0.4,0,0.9-0.2,1.2-0.5l10.4-10.4L23,78.4L13.8,87.6z M23,55.9l-5.7,5.7l-5.7-5.7l-2.4,2.4l5.7,5.7l-5.7,5.7l2.4,2.4l5.7-5.7
			l5.7,5.7l2.4-2.4L19.8,64l5.7-5.7L23,55.9z M60.6,38.1H31.2v3.5h29.4V38.1z M60.6,60.6H31.2V64h29.4V60.6z M60.6,83.1H31.2v3.5
			h29.4V83.1z M57.1,96.9h3.5v-3.5h-3.5V96.9z M50.2,96.9h3.5v-3.5h-3.5V96.9z M43.3,96.9h3.5v-3.5h-3.5V96.9z"/>
	</g>
</g>
</svg>
