<?xml version="1.0" encoding="utf-8"?>
<!-- Generator: Adobe Illustrator 21.1.0, SVG Export Plug-In . SVG Version: 6.00 Build 0)  -->
<svg version="1.1" id="Слой_1" xmlns="http://www.w3.org/2000/svg" xmlns:xlink="http://www.w3.org/1999/xlink" x="0px" y="0px"
	 viewBox="0 0 88.3 95.5" style="enable-background:new 0 0 88.3 95.5;" xml:space="preserve">
<style type="text/css">
	.st0{fill:#FF4C00;}
</style>
<g id="Group-2" transform="translate(102.000000, 0.000000)">
	<path id="Combined-Shape" class="st0" d="M-64.8,19.7l9-18.3c0.6-1.2,2-1.7,3.2-1.1c0.5,0.2,0.9,0.6,1.1,1.1L-41,22.6
		c0.4,0.7,1,1.2,1.8,1.3l23.4,3.4c1.3,0.2,2.2,1.4,2,2.7c-0.1,0.5-0.3,1-0.7,1.4l-17,16.5c-0.6,0.6-0.8,1.3-0.7,2.1l4,23.3
		c0.2,1.3-0.7,2.6-2,2.8c-0.5,0.1-1.1,0-1.5-0.2l-18.7-9.8V62l18.2,9.6l-3.6-20.9c-0.3-2,0.3-3.9,1.7-5.3l15.2-14.8l-21-3.1
		c-2-0.3-3.7-1.5-4.5-3.3l-9.4-19.1l-7.2,14.5H-64.8z"/>
	<path id="Combined-Shape_1_" class="st0" d="M-102,87.5L-102,87.5l0-55.8l0,0c0-4.7,3.8-8.4,8.4-8.4l0,0h1.2v21.6l4.8-3.2l4.8,3.2
		V23.3h28.9v57.2v1.8h-39.7c-2.7,0-4.8,2.2-4.8,4.8c0,2.7,2.2,4.8,4.8,4.8h39.7v3.6h-39.7C-98.1,95.5-101.8,91.9-102,87.5z"/>
</g>
</svg>
